<svg width="20" height="20" viewBox="0 0 20 20" fill="none" xmlns="http://www.w3.org/2000/svg">
<path d="M8.85948 0.0692153C4.25948 0.569215 0.559482 4.26922 0.0594817 8.76922C-0.440518 13.4692 2.25948 17.6692 6.35948 19.2692C6.65948 19.3692 6.95948 19.1692 6.95948 18.7692V17.1692C6.95948 17.1692 6.55948 17.2692 6.05948 17.2692C4.65948 17.2692 4.05948 16.0692 3.95948 15.3692C3.85948 14.9692 3.65948 14.6692 3.35948 14.3692C3.05948 14.2692 2.95948 14.2692 2.95948 14.1692C2.95948 13.9692 3.25948 13.9692 3.35948 13.9692C3.95948 13.9692 4.45948 14.6692 4.65948 14.9692C5.15948 15.7692 5.75948 15.9692 6.05948 15.9692C6.45948 15.9692 6.75948 15.8692 6.95948 15.7692C7.05948 15.0692 7.35948 14.3692 7.95948 13.9692C5.65948 13.4692 3.95948 12.1692 3.95948 9.96922C3.95948 8.86922 4.45948 7.76922 5.15948 6.96922C5.05948 6.76922 4.95948 6.26922 4.95948 5.56922C4.95948 5.16922 4.95948 4.66922 5.15948 4.26922C5.15948 4.06922 5.35948 3.96922 5.45948 3.96922H5.55948C6.05948 4.06922 7.05948 4.36922 7.95948 5.26922C8.55948 5.06922 9.25948 4.96922 9.95948 4.96922C10.6595 4.96922 11.3595 5.06922 11.9595 5.26922C12.8595 4.36922 13.9595 4.06922 14.4595 3.96922H14.5595C14.7595 3.96922 14.8595 4.06922 14.9595 4.26922C14.9595 4.66922 14.9595 5.16922 14.9595 5.56922C14.9595 6.36922 14.8595 6.76922 14.7595 6.96922C15.4595 7.76922 15.9595 8.76922 15.9595 9.96922C15.9595 12.1692 14.2595 13.4692 11.9595 13.9692C12.5595 14.4692 12.9595 15.3692 12.9595 16.2692V18.8692C12.9595 19.1692 13.2595 19.4692 13.6595 19.3692C17.3595 17.8692 19.9595 14.2692 19.9595 10.0692C19.9595 4.06922 14.8595 -0.630785 8.85948 0.0692153Z" fill="#0E0E0E"/>
</svg>
